<?xml version="1.0" encoding="utf-8"?>
<!-- Generator: Adobe Illustrator 19.2.0, SVG Export Plug-In . SVG Version: 6.00 Build 0)  -->
<svg version="1.1" id="Layer_2" xmlns="http://www.w3.org/2000/svg" xmlns:xlink="http://www.w3.org/1999/xlink" x="0px" y="0px"
	 viewBox="0 0 420.7 420.7" style="enable-background:new 0 0 420.7 420.7;" xml:space="preserve">
<style type="text/css">
	.st0{fill:#ED1C24;}
	.st1{fill:#FFFFFF;}
	.st2{fill:#ED1C24;stroke:#000000;stroke-linecap:round;stroke-miterlimit:10;}
</style>
<g>
	<circle class="st0" cx="210.4" cy="210.4" r="210.4"/>
	<g id="XMLID_1_">
		<g>
			<path class="st1" d="M338.9,250.6c0,70.2-56.9,127.2-127.2,127.2S84.6,320.9,84.6,250.6c0-85.7,117.2-180.6,127.2-207.7
				C212.6,40.6,338.9,139.7,338.9,250.6z"/>
		</g>
		<g>
		</g>
	</g>
	<line class="st2" x1="222.1" y1="255.4" x2="222.6" y2="249.4"/>
	<path class="st0" d="M135.4,225.6v55.2c0,1.1,0.9,2,2,2h151.4c1.1,0,2-0.9,2-2v-55.2c0-1.1-0.9-2-2-2H137.5
		C136.3,223.5,135.4,224.4,135.4,225.6z"/>
	<path class="st0" d="M240.8,330.9h-55.2c-1.1,0-2-0.9-2-2V177.5c0-1.1,0.9-2,2-2h55.2c1.1,0,2,0.9,2,2v151.4
		C242.8,330,241.9,330.9,240.8,330.9z"/>
</g>
</svg>
