<?xml version="1.0" standalone="no"?>
<!DOCTYPE svg PUBLIC "-//W3C//DTD SVG 20010904//EN"
 "http://www.w3.org/TR/2001/REC-SVG-20010904/DTD/svg10.dtd">
<svg version="1.0" xmlns="http://www.w3.org/2000/svg"
 width="512.000000pt" height="512.000000pt" viewBox="0 0 512.000000 512.000000"
 preserveAspectRatio="xMidYMid meet">
<metadata>
Created by potrace 1.14, written by Peter Selinger 2001-2017
</metadata>
<g transform="translate(0.000000,512.000000) scale(0.100000,-0.100000)"
fill="#000000" stroke="none">
<path d="M2395 4233 c-191 -24 -380 -101 -546 -224 -134 -99 -303 -300 -365
-434 -11 -22 -21 -42 -24 -45 -3 -3 -6 -12 -8 -20 -1 -8 -12 -36 -22 -62 -11
-25 -23 -64 -26 -85 -3 -21 -8 -41 -10 -44 -25 -41 -25 -371 0 -489 71 -340
289 -801 574 -1215 146 -212 411 -555 561 -725 l31 -35 71 75 c201 211 652
867 834 1213 118 226 221 495 260 682 50 237 20 540 -71 718 -19 37 -32 67
-29 67 3 0 -2 8 -10 18 -8 9 -15 20 -15 25 0 4 -9 16 -20 27 -12 12 -18 25
-15 30 4 6 2 10 -3 10 -15 0 -92 107 -84 115 4 5 2 5 -5 1 -7 -4 -19 3 -27 17
-9 12 -51 54 -95 92 -44 38 -77 73 -74 78 3 6 1 7 -5 3 -6 -3 -30 7 -54 23
-196 132 -408 192 -662 190 -72 -1 -144 -4 -161 -6z m326 -772 c82 -32 180
-124 221 -209 44 -92 51 -215 18 -321 -12 -39 -28 -77 -35 -85 -8 -7 -12 -16
-10 -18 3 -2 -17 -29 -44 -59 -52 -59 -133 -107 -213 -129 -78 -21 -193 -9
-269 27 -71 33 -130 78 -126 96 1 7 -3 11 -10 10 -19 -4 -76 85 -88 137 -1 3
-7 25 -14 49 -19 66 -10 203 18 273 40 103 148 203 258 239 78 26 214 21 294
-10z"/>
</g>
</svg>
