<?xml version="1.0" standalone="no"?>
<!DOCTYPE svg PUBLIC "-//W3C//DTD SVG 20010904//EN"
 "http://www.w3.org/TR/2001/REC-SVG-20010904/DTD/svg10.dtd">
<svg version="1.0" xmlns="http://www.w3.org/2000/svg"
 width="512.000000pt" height="512.000000pt" viewBox="0 0 512.000000 512.000000"
 preserveAspectRatio="xMidYMid meet">
<metadata>
Created by potrace 1.14, written by Peter Selinger 2001-2017
</metadata>
<g transform="translate(0.000000,512.000000) scale(0.100000,-0.100000)"
fill="#000000" stroke="none">
<path d="M2476 4065 c-40 -15 -128 -89 -118 -99 3 -3 1 -6 -5 -6 -15 0 -32
-75 -35 -158 l-3 -73 -73 -25 c-89 -30 -137 -54 -217 -107 -63 -43 -217 -191
-208 -201 3 -3 -2 -8 -11 -12 -9 -3 -16 -12 -16 -20 0 -8 -4 -14 -8 -14 -13 0
-88 -157 -111 -235 -47 -151 -51 -210 -51 -691 0 -296 -4 -455 -10 -459 -6 -4
-8 -10 -6 -14 3 -4 -57 -68 -132 -142 -75 -74 -127 -123 -117 -109 13 16 6 13
-18 -9 -37 -35 -37 -36 -37 -113 l0 -78 1260 0 1260 0 0 76 0 76 -152 149
-153 148 -6 478 c-5 447 -7 485 -28 583 -12 58 -34 134 -48 170 -31 78 -111
220 -124 220 -5 0 -9 5 -9 11 0 6 -11 20 -25 31 -14 11 -22 24 -19 30 4 7 2 8
-4 4 -6 -3 -14 0 -19 7 -4 8 -30 34 -58 57 -27 24 -49 48 -47 53 1 4 -2 5 -8
2 -6 -4 -19 0 -28 8 -27 24 -151 83 -223 107 l-66 21 -2 86 c-1 47 -8 101 -15
118 -17 39 -75 99 -118 121 -44 23 -143 27 -192 9z"/>
<path d="M3445 4012 c-22 -20 -30 -26 -20 -12 l20 25 -27 -24 c-15 -13 -25
-28 -22 -32 3 -5 -1 -9 -9 -9 -7 0 -26 -13 -42 -30 -16 -16 -25 -30 -20 -30 4
0 0 -9 -10 -20 -9 -10 -22 -18 -27 -17 -32 6 -9 -27 59 -88 204 -183 327 -359
397 -569 30 -91 66 -258 66 -309 0 -69 -4 -67 166 -67 l154 0 0 43 c0 65 -27
231 -55 335 -42 157 -148 388 -207 452 -10 10 -18 24 -18 30 0 5 -4 10 -8 10
-5 0 -24 19 -42 42 -19 23 -27 38 -19 34 8 -5 -4 8 -26 28 -22 19 -36 35 -31
36 5 0 3 7 -4 15 -7 8 -16 13 -20 10 -7 -5 -45 32 -45 44 0 3 -3 5 -6 4 -4 -1
-17 10 -30 25 l-24 27 25 -20 25 -20 -19 23 c-11 12 -21 20 -24 17 -3 -2 -26
13 -51 34 -66 54 -64 54 -106 13z"/>
<path d="M1530 3956 c-52 -46 -102 -92 -110 -102 -9 -11 -41 -49 -71 -85 -31
-36 -76 -95 -99 -130 -24 -35 -48 -67 -53 -70 -5 -3 -9 -10 -9 -15 0 -5 -11
-28 -24 -51 -38 -64 -91 -203 -118 -307 -24 -89 -56 -288 -56 -342 l0 -25 157
3 157 3 16 115 c34 236 105 413 232 585 58 78 214 236 271 275 37 25 49 50 25
50 -7 1 -55 41 -107 90 -52 50 -99 90 -105 90 -6 0 -54 -38 -106 -84z"/>
<path d="M2558 1322 l-308 -2 0 -33 c1 -47 33 -110 85 -166 105 -112 274 -131
403 -45 77 51 140 160 130 227 l-3 22 -307 -3z"/>
</g>
</svg>
